<svg width="96" height="33" viewBox="0 0 96 33" fill="none" xmlns="http://www.w3.org/2000/svg">
<g clip-path="url(#clip0)">
<path d="M45.0409 23.7133C45.0129 23.3159 44.9645 23.0706 44.938 22.3783C44.4603 22.7275 43.9152 22.9746 43.3369 23.1039C42.7587 23.2332 42.1598 23.2419 41.578 23.1296C40.0188 22.8735 38.5018 21.6146 38.6156 18.9803C38.6702 17.6934 39.0459 16.0727 40.6503 15.4099C42.4823 14.6337 44.319 14.2053 45.2124 13.96C45.2576 12.8936 45.1345 12.7849 44.7353 12.549C44.0555 12.2059 42.1393 12.2835 40.1966 13.2009L39.9175 10.2453C39.9175 10.2453 45.1797 8.74265 47.191 10.4642C48.2824 11.3956 48.4461 12.6235 48.3682 14.1075C48.2263 16.7946 47.9722 23.6388 47.9722 23.6388L45.0409 23.7133ZM43.0421 17.0895C42.3685 17.3441 41.6918 17.7617 41.5858 18.6884C41.4798 19.6152 41.8228 20.5667 42.5696 20.7064C43.3165 20.8462 44.7182 20.011 45.0082 19.536C45.0362 18.6636 45.0986 17.0833 45.1236 16.3956C45.1236 16.3956 43.4927 16.8939 43.0421 17.0942" fill="#CD001A"/>
<path d="M75.3807 26.5572C75.7456 16.256 76.9789 4.24249 76.9789 4.24249L72.7302 4.47534C72.7302 4.47534 72.685 10.5915 72.3638 26.2685L75.3807 26.5572Z" fill="#CD001A"/>
<path d="M31.116 31.0014C28.9566 31.2389 27.2181 30.7546 26.3652 30.2687L27.4005 27.369C28.6962 28.3407 32.5645 28.5938 33.8539 25.4193C35.1106 21.7884 32.4148 9.94722 32.4148 9.94722L36.6246 9.54517C36.6246 9.54517 37.5694 19.9194 37.5289 22.3783C37.4883 24.8371 37.217 26.1302 36.6386 27.2541C36.0953 28.2795 35.3083 29.157 34.3463 29.8102C33.3842 30.4633 32.2763 30.8723 31.1191 31.0014" fill="#CD001A"/>
<path d="M32.9355 0L34.5602 2.81747L37.8126 2.39369L36.0773 4.99228L37.5273 8.4043L34.0363 6.75573L31.0583 8.45087L31.5915 5.44867L29.1281 3.75198L32.0546 3.18538L32.9355 0Z" fill="#CD001A"/>
<path d="M53.2203 24.5394C53.2203 24.5394 53.2079 18.8175 53.4184 14.6774C54.1122 14.2862 55.0586 13.937 55.899 13.9804C56.7394 14.0239 56.7784 15.0003 56.6599 16.1878C56.557 16.9516 55.7431 24.2894 55.7431 24.2894L59.2496 24.6946C59.2496 24.6946 59.7501 19.0379 60.0136 15.9224C60.2771 12.8069 59.3603 11.4207 57.494 11.3151C55.6277 11.2095 54.1262 11.7808 53.4901 12.1611L53.5462 10.5001L49.7122 10.6848C49.7122 10.6848 50.2034 16.4005 49.9071 24.5394H53.2203Z" fill="#CD001A"/>
<path d="M21.9933 22.5257C21.669 22.0601 20.6135 20.3649 20.325 17.6903C20.2002 16.6369 20.1882 15.5732 20.2892 14.5173C19.3256 13.6682 17.9863 13.0705 16.2228 12.8408C18.6146 10.5666 19.5252 7.86092 18.9202 5.6799C17.5668 0.488918 12.0365 0.833535 7.93588 2.27254C4.31393 3.60133 0.416016 5.99192 0.416016 5.99192L2.51777 10.5294L3.77914 9.95035L11.9538 32.1874C11.9538 32.1874 12.9299 31.877 14.2521 31.4113C18.2123 29.9692 21.9091 27.8751 22.5577 23.2522C22.3519 23.007 22.1617 22.7633 21.9933 22.5257ZM10.2622 13.4415L8.54707 7.99131C8.54707 7.99131 9.22063 7.64825 10.3027 7.21515C11.667 6.67339 12.9127 6.80844 13.421 7.95561C14.2723 10.0606 13.1918 12.2866 10.9981 13.1606C10.7065 13.2739 10.2622 13.4415 10.2622 13.4415ZM15.8923 26.4376C15.5805 26.6875 14.5296 27.0803 14.5296 27.0803L11.6171 17.8812L12.4216 17.6204C15.2468 16.7014 17.4343 17.9309 17.9863 20.382C18.705 23.0334 17.9691 25.3634 15.8923 26.4376Z" fill="#CD001A"/>
<path d="M32.3789 15.871V15.8555C31.6944 11.5648 29.443 9.31395 26.0424 9.52662C25.2551 9.57474 23.7661 9.85106 22.6513 11.1659C21.4507 12.5832 21.0032 14.8014 21.3229 17.7602C21.5365 19.7394 22.2506 21.3616 22.8508 22.2247C24.0982 23.9865 25.6043 24.8776 27.3194 24.8776C27.4223 24.8776 27.5268 24.8776 27.6312 24.8683C28.6852 24.8031 30.2101 24.5702 31.2719 23.2927C32.4693 21.8521 32.8326 19.4243 32.3789 15.871ZM24.9479 16.9576C24.5456 13.246 25.7135 13.173 26.0986 13.1498C27.1495 13.0861 28.3859 14.0656 28.7039 17.0104C28.9721 19.4941 28.481 21.138 27.4566 21.2017C26.2373 21.2669 25.1771 19.061 24.9495 16.9514L24.9479 16.9576Z" fill="#CD001A"/>
<path d="M67.8625 29.2102C66.2908 30.2207 63.74 30.452 61.8612 29.8652C62.0172 29.1574 62.4693 27.1921 62.4693 27.1921C64.3403 27.6283 65.8168 27.4079 66.598 26.579C67.3464 25.7873 67.3667 25.0111 67.429 24.502C67.454 24.3033 67.4696 24.1077 67.4742 23.9462C66.8116 24.5982 65.4738 24.8543 64.5976 24.7969C63.7213 24.7395 62.633 24.4787 61.9719 23.2539C61.3108 22.0291 61.0021 20.32 61.0817 17.9356C61.2376 13.4183 62.4537 10.8741 65.07 10.9626C66.8786 11.0247 67.9685 11.5835 67.9685 11.5835L68.0371 10.0901L71.4797 10.6614C71.4797 10.6614 71.065 14.5562 70.8124 18.5596C70.6737 20.7686 70.5489 22.7075 70.4024 24.6292C70.2168 27.054 69.4248 28.2058 67.8625 29.2102ZM67.7954 14.3513C67.336 14.1698 66.8487 14.0685 66.3548 14.0517C64.9998 14.0067 64.5071 14.5562 64.4229 17.0974C64.2904 21.0511 64.9749 22.0229 65.795 22.0508C66.3626 22.0695 66.9769 21.8382 67.5366 21.166C67.6114 20.7903 67.6426 18.9244 67.6925 17.5429L67.7954 14.3513Z" fill="#CD001A"/>
<path d="M87.8026 23.465C87.9585 22.6888 88.13 21.4594 88.2563 20.4162C90.2005 21.3988 91.4993 20.8493 91.61 19.817C91.7176 18.7071 91.2982 18.3702 89.8248 17.1361C88.5775 16.1085 87.1742 15.1833 87.2553 13.0395C87.299 10.4549 90.0524 7.72128 95.2304 9.71291C94.9903 10.6847 94.4648 12.802 94.4648 12.802C94.4648 12.802 93.0133 11.9389 92.1074 11.8706C90.7042 11.7728 90.3705 12.771 90.5311 13.215C90.6917 13.6589 90.9521 13.929 91.557 14.404C92.4925 15.0436 96.7693 17.9201 94.9871 21.5851C93.5886 24.5485 89.5722 24.2799 87.8026 23.465Z" fill="#CD001A"/>
<path d="M82.6574 26.0356C81.0857 26.1179 79.5219 25.5172 78.6706 24.5066C77.5105 23.1281 76.982 21.1707 76.982 18.9105C76.982 13.1032 79.5827 11.9064 82.4687 11.7837C85.771 11.6425 86.6675 14.7161 86.8983 19.0626C84.2165 19.5283 81.0218 19.9645 80.2235 20.0716C80.2578 21.1225 80.5447 21.6721 80.9875 22.2371C81.2713 22.6143 81.7827 22.9108 82.8133 23.0319C83.8439 23.153 84.8698 22.7214 85.6634 22.3101C86.047 23.1359 86.7096 24.668 86.7096 24.668C85.5128 25.49 84.1095 25.9636 82.6574 26.0356ZM81.9744 14.373C81.0592 14.373 80.0255 15.7794 80.1565 17.5956C80.4122 17.6034 83.1906 17.1827 83.543 17.1191C83.3793 15.5838 83.0144 14.373 81.9744 14.373Z" fill="#CD001A"/>
</g>
<defs>
<clipPath id="clip0">
<rect width="95" height="32.1875" fill="white" transform="translate(0.416016)"/>
</clipPath>
</defs>
</svg>
