<svg width="39" height="35" viewBox="0 0 39 35" fill="none" xmlns="http://www.w3.org/2000/svg">
<path d="M38.1303 21.3447H6.24897C5.96931 21.3447 5.68965 21.59 5.68965 21.8353V34.5093C5.68965 34.7546 5.96931 34.9999 6.24897 34.9999H38.1303C38.41 34.9999 38.6897 34.7546 38.6897 34.5093V21.8353C38.6897 21.59 38.41 21.3447 38.1303 21.3447Z" fill="#FEDB00"/>
<path d="M34.8966 3.13794H9.38794C9.19828 3.13794 9.10345 3.28966 9.10345 3.59311V7.23449C9.10345 7.53794 9.19828 7.68966 9.38794 7.68966H34.9914C35.181 7.68966 35.2759 7.53794 35.2759 7.23449V4.2121C35.2759 3.80759 35.3011 3.13794 34.8966 3.13794Z" fill="#FEDB00"/>
<path d="M3.27586 31.7773V19.3811H35.395V31.7773H3.27586Z" stroke="#1C1B1A" stroke-width="2" stroke-miterlimit="10"/>
<mask id="path-4-inside-1" fill="white">
<path d="M0 14.3256L3.7912 5.7013C3.88841 5.50964 3.98562 5.41382 4.18004 5.41382H34.1208C34.3152 5.41382 34.5096 5.50964 34.6068 5.7013L38.6897 14.5173"/>
</mask>
<path d="M3.7912 5.7013L2.00753 4.79658L1.98253 4.84586L1.96029 4.89644L3.7912 5.7013ZM34.6068 5.7013L36.4217 4.86082L36.4067 4.82842L36.3905 4.79658L34.6068 5.7013ZM1.8309 15.1305L5.6221 6.50615L1.96029 4.89644L-1.8309 13.5208L1.8309 15.1305ZM5.57487 6.60602C5.57149 6.61268 5.54383 6.6674 5.4898 6.7426C5.43351 6.82093 5.33638 6.9388 5.18761 7.05611C4.83535 7.33391 4.44901 7.41382 4.18004 7.41382V3.41382C3.71664 3.41382 3.18449 3.54164 2.71071 3.91526C2.30617 4.23429 2.09829 4.61763 2.00753 4.79658L5.57487 6.60602ZM4.18004 7.41382H34.1208V3.41382H4.18004V7.41382ZM34.1208 7.41382C33.6834 7.41382 33.1185 7.18824 32.8232 6.60602L36.3905 4.79658C35.9008 3.83105 34.947 3.41382 34.1208 3.41382V7.41382ZM32.792 6.54177L36.8748 15.3577L40.5045 13.6768L36.4217 4.86082L32.792 6.54177Z" fill="#1C1B1A" mask="url(#path-4-inside-1)"/>
<path d="M6.96552 5.41379V6.41379H7.96552H30.6426H30.7241H31.7241V5.41379V2.48768C31.7241 2.03926 31.5093 1.67545 31.277 1.44403C31.0446 1.21239 30.681 1 30.2347 1H8.45495C8.00862 1 7.6451 1.21239 7.41262 1.44403C7.18037 1.67545 6.96552 2.03927 6.96552 2.48768V5.41379Z" stroke="#1C1B1A" stroke-width="2" stroke-miterlimit="10"/>
<path d="M32 28.3103H26.0345V23.4827H32V28.3103Z" stroke="#1C1B1A" stroke-width="2" stroke-miterlimit="10"/>
<path d="M12.6552 23.4827V28.3103H6.68965V23.4827H12.6552Z" stroke="#1C1B1A" stroke-width="2" stroke-miterlimit="10"/>
<path d="M22.8966 23.4827V31.724H15.7931V23.4827H22.8966Z" stroke="#1C1B1A" stroke-width="2" stroke-miterlimit="10"/>
<path d="M19.3449 9.96533V11.1033" stroke="#1C1B1A" stroke-width="2" stroke-miterlimit="10" stroke-linecap="round"/>
<path d="M13.3391 9.96606L12.5172 11.104" stroke="#1C1B1A" stroke-width="2" stroke-miterlimit="10" stroke-linecap="round"/>
<path d="M25.0345 9.96533L25.8564 11.1033" stroke="#1C1B1A" stroke-width="2" stroke-miterlimit="10" stroke-linecap="round"/>
<mask id="path-13-inside-2" fill="white">
<rect y="13.3794" width="38.6897" height="6.82759" rx="1"/>
</mask>
<rect y="13.3794" width="38.6897" height="6.82759" rx="1" stroke="#1C1B1A" stroke-width="4" mask="url(#path-13-inside-2)"/>
</svg>
