<svg width="38" height="32" viewBox="0 0 38 32" fill="none" xmlns="http://www.w3.org/2000/svg">
<path d="M33.5729 5.34149H6.7632L3.32385 10.1036H37.1556L33.5729 5.34149ZM23.2979 8.17035H15.5464V6.07379H23.2979V8.17035Z" fill="#FEDB00"/>
<path d="M36.8691 12.6358H3.32397V30.883H36.8691V12.6358Z" fill="#FEDB00"/>
<path d="M37.988 31.7428H0.0118408V9.67365H37.988V31.7428ZM1.58821 30.1664H36.4116V11.25H1.58821V30.1664Z" fill="#1C1B1A"/>
<path d="M24.281 14.3769L24.9015 15.4574L26.144 15.2955L25.4804 16.2929L26.035 17.6013L24.7009 16.9693L23.563 17.6185L23.7679 16.4677L22.8264 15.8157L23.9442 15.5993L24.281 14.3769Z" fill="#1C1B1A"/>
<path d="M20.1005 23.0197C19.9773 22.8405 19.5731 22.1899 19.4628 21.1639C19.4155 20.7182 19.4112 20.3126 19.4499 19.9472C19.0816 19.6219 18.57 19.3926 17.8965 19.3038C18.8093 18.431 19.1576 17.3935 18.9268 16.5566C18.4066 14.5646 16.2972 14.6965 14.7308 15.2496C13.3494 15.7598 11.8575 16.677 11.8575 16.677L12.6601 18.4181L13.1416 18.196L16.2656 26.7284C16.2656 26.7284 16.6382 26.6095 17.1427 26.4289C18.656 25.8758 20.0676 25.0718 20.3155 23.2977C20.2367 23.2045 20.165 23.1114 20.1005 23.0197ZM15.6193 19.5345L14.9616 17.4436C14.9616 17.4436 15.2181 17.3118 15.6322 17.147C16.1539 16.9392 16.6296 16.9908 16.8217 17.4307C17.147 18.2376 16.7343 19.0931 15.8959 19.4284C15.7899 19.47 15.6193 19.5345 15.6193 19.5345ZM17.7704 24.5201C17.6514 24.6161 17.2502 24.7666 17.2502 24.7666L16.1381 21.237L16.4462 21.1366C17.5253 20.7841 18.3608 21.2556 18.5714 22.1957C18.8437 23.2146 18.5628 24.1088 17.7704 24.5201Z" fill="#1C1B1A"/>
<path d="M24.0686 20.466L24.0671 20.4603C23.8063 18.8137 22.945 17.951 21.6467 18.0313C21.3458 18.0499 20.7768 18.1559 20.3512 18.6604C19.8926 19.2049 19.7207 20.0562 19.8439 21.1912C19.9256 21.9507 20.1979 22.5726 20.4272 22.9037C20.9058 23.5801 21.479 23.9211 22.1339 23.9211C22.1726 23.9211 22.2128 23.9197 22.2529 23.9168C22.6556 23.8925 23.2374 23.8022 23.6444 23.3121C24.1015 22.7618 24.2405 21.8303 24.0686 20.466ZM21.2297 20.8816C21.0763 19.4572 21.522 19.4299 21.6696 19.4199C22.0709 19.3955 22.5438 19.771 22.6656 20.9002C22.7688 21.8532 22.5811 22.4838 22.187 22.5081C21.7212 22.5382 21.3171 21.6899 21.2297 20.8816Z" fill="#1C1B1A"/>
<path d="M0.788684 10.5149C0.619583 10.5149 0.449049 10.4604 0.30431 10.3486C-0.039625 10.0807 -0.101247 9.58625 0.166736 9.24231L7.12998 0.30431C7.39796 -0.039625 7.89237 -0.101247 8.2363 0.166736C8.58024 0.434718 8.64186 0.929124 8.37388 1.27306L1.41063 10.2111C1.25443 10.4103 1.02227 10.5149 0.788684 10.5149Z" fill="#1C1B1A"/>
<path d="M37.2112 10.5149C36.9762 10.5149 36.744 10.4103 36.5892 10.2111L29.6274 1.27306C29.3594 0.929124 29.4211 0.434718 29.765 0.166736C30.1089 -0.101247 30.6033 -0.039625 30.8713 0.30431L37.8331 9.24231C38.1011 9.58625 38.0395 10.0807 37.6956 10.3486C37.5508 10.4604 37.3803 10.5149 37.2112 10.5149Z" fill="#1C1B1A"/>
<path d="M36.7701 8.31227H35.1937V4.36562L2.8008 4.37135L2.80653 8.31227H1.23016V4.36562C1.23016 3.50005 1.93523 2.79498 2.8008 2.79498H35.2009C36.0664 2.79498 36.7715 3.50005 36.7715 4.36562V8.31227H36.7701Z" fill="#1C1B1A"/>
<path d="M22.6185 8.95713H16.1167C15.1823 8.95713 14.4228 8.19761 14.4228 7.26325V6.92361C14.4228 5.98926 15.1823 5.22974 16.1167 5.22974H22.6185C23.5528 5.22974 24.3123 5.98926 24.3123 6.92361V7.26325C24.3123 8.19761 23.5528 8.95713 22.6185 8.95713ZM16.1167 6.80754C16.0522 6.80754 15.9992 6.86056 15.9992 6.92505V7.26468C15.9992 7.32917 16.0522 7.38219 16.1167 7.38219H22.6185C22.683 7.38219 22.736 7.32917 22.736 7.26468V6.92505C22.736 6.86056 22.683 6.80754 22.6185 6.80754H16.1167Z" fill="#1C1B1A"/>
</svg>