<svg width="28" height="28" viewBox="0 0 28 28" fill="none" xmlns="http://www.w3.org/2000/svg">
<ellipse cx="14.875" cy="14.875" rx="11.375" ry="11.375" transform="rotate(90 14.875 14.875)" fill="#FEDB00"/>
<g clip-path="url(#clip0)">
<path d="M14 28C11.2311 28 8.52431 27.1789 6.22202 25.6406C3.91974 24.1022 2.12532 21.9157 1.06569 19.3576C0.006066 16.7994 -0.271181 13.9845 0.269012 11.2687C0.809206 8.55301 2.14258 6.05845 4.10051 4.10051C6.05845 2.14258 8.55301 0.809206 11.2687 0.269012C13.9845 -0.271181 16.7994 0.006066 19.3576 1.06569C21.9157 2.12532 24.1022 3.91974 25.6406 6.22202C27.1789 8.52431 28 11.2311 28 14C28 17.713 26.525 21.274 23.8995 23.8995C21.274 26.525 17.713 28 14 28ZM14 2.14667C11.6556 2.14667 9.36392 2.84186 7.41465 4.14432C5.46538 5.44678 3.94611 7.29802 3.04895 9.46393C2.1518 11.6298 1.91707 14.0132 2.37443 16.3125C2.83179 18.6118 3.96072 20.7239 5.61843 22.3816C7.27615 24.0393 9.38822 25.1682 11.6875 25.6256C13.9869 26.0829 16.3702 25.8482 18.5361 24.9511C20.702 24.0539 22.5532 22.5346 23.8557 20.5854C25.1582 18.6361 25.8533 16.3444 25.8533 14C25.8503 10.8573 24.6004 7.84411 22.3782 5.62185C20.1559 3.39958 17.1428 2.14976 14 2.14667Z" fill="#1C1B1A"/>
</g>
<g clip-path="url(#clip1)">
<path d="M18.6677 14C18.6675 14.2152 18.5773 14.4215 18.417 14.5736L13.1363 19.5902C13.0575 19.6696 12.9627 19.7332 12.8576 19.7772C12.7525 19.8212 12.6392 19.8447 12.5244 19.8465C12.4095 19.8482 12.2955 19.828 12.189 19.7871C12.0825 19.7463 11.9857 19.6856 11.9043 19.6086C11.8229 19.5316 11.7586 19.4399 11.7152 19.3389C11.6717 19.2379 11.65 19.1296 11.6513 19.0205C11.6526 18.9114 11.6769 18.8037 11.7228 18.7037C11.7687 18.6036 11.8352 18.5134 11.9184 18.4382L16.5953 14L11.9184 9.58121C11.7542 9.42779 11.6609 9.21868 11.659 8.99989C11.657 8.7811 11.7467 8.57054 11.9082 8.41454C12.0697 8.25855 12.2898 8.16988 12.5201 8.16806C12.7504 8.16624 12.972 8.2514 13.1363 8.40482L18.417 13.4215C18.5762 13.5762 18.6661 13.7836 18.6677 14Z" fill="#1C1B1A"/>
</g>
<defs>
<clipPath id="clip0">
<rect width="28" height="28" fill="white"/>
</clipPath>
<clipPath id="clip1">
<rect width="7" height="11.6667" fill="white" transform="translate(11.6666 8.16666)"/>
</clipPath>
</defs>
</svg>
