<?xml version="1.0" encoding="utf-8"?>
<!-- Generator: Adobe Illustrator 16.0.0, SVG Export Plug-In . SVG Version: 6.00 Build 0)  -->
<!DOCTYPE svg PUBLIC "-//W3C//DTD SVG 1.1//EN" "http://www.w3.org/Graphics/SVG/1.1/DTD/svg11.dtd">
<svg version="1.1" id="Layer_1" xmlns="http://www.w3.org/2000/svg" xmlns:xlink="http://www.w3.org/1999/xlink" x="0px" y="0px"
	 width="18.638px" height="20px" viewBox="0.416 0.094 18.638 20" enable-background="new 0.416 0.094 18.638 20"
	 xml:space="preserve">
<path fill="#1C1B1A" d="M9.735,11.359c-6.009,0-9.319,2.843-9.319,8.004c0,0.404,0.327,0.73,0.73,0.73h17.178
	c0.402,0,0.729-0.326,0.729-0.73C19.054,14.202,15.744,11.359,9.735,11.359z M1.902,18.634c0.287-3.859,2.918-5.815,7.833-5.815
	c4.914,0,7.545,1.956,7.833,5.815H1.902z"/>
<ellipse fill="#FEDB00" cx="10.984" cy="6.344" rx="4.583" ry="4.583"/>
<path fill="#1C1B1A" d="M9.735,0.094c-2.76,0-4.842,2.123-4.842,4.939c0,2.898,2.172,5.255,4.842,5.255
	c2.669,0,4.841-2.357,4.841-5.255C14.576,2.217,12.495,0.094,9.735,0.094z M9.735,8.829c-1.865,0-3.382-1.703-3.382-3.795
	c0-2.017,1.423-3.479,3.382-3.479c1.928,0,3.382,1.496,3.382,3.479C13.117,7.126,11.6,8.829,9.735,8.829z"/>
</svg>
